<svg width="16" height="16" viewBox="0 0 16 16" fill="none" xmlns="http://www.w3.org/2000/svg">
<path d="M15.2845 0.000289721C15.2586 0.00110862 15.2327 0.00337574 15.2071 0.00708041H11.1259C11.0337 0.00577726 10.9422 0.0228008 10.8567 0.0571614C10.7712 0.0915221 10.6934 0.142535 10.6278 0.207235C10.5622 0.271935 10.51 0.349032 10.4745 0.434046C10.4389 0.519059 10.4206 0.610294 10.4206 0.702447C10.4206 0.794601 10.4389 0.885836 10.4745 0.970849C10.51 1.05586 10.5622 1.13296 10.6278 1.19766C10.6934 1.26236 10.7712 1.31337 10.8567 1.34773C10.9422 1.38209 11.0337 1.39912 11.1259 1.39781H13.6194L6.46202 8.55521C6.39529 8.61928 6.342 8.69603 6.3053 8.78095C6.26859 8.86588 6.2492 8.95727 6.24826 9.04978C6.24732 9.14229 6.26485 9.23407 6.29982 9.31972C6.33478 9.40537 6.38649 9.48319 6.45191 9.54861C6.51733 9.61403 6.59515 9.66574 6.6808 9.7007C6.76646 9.73567 6.85823 9.7532 6.95074 9.75226C7.04325 9.75132 7.13465 9.73193 7.21957 9.69522C7.30449 9.65852 7.38124 9.60523 7.44532 9.5385L14.6027 2.38111V4.87465C14.6014 4.96679 14.6184 5.05828 14.6528 5.14379C14.6871 5.22929 14.7382 5.30712 14.8029 5.37274C14.8676 5.43836 14.9447 5.49047 15.0297 5.52604C15.1147 5.5616 15.2059 5.57992 15.2981 5.57992C15.3902 5.57992 15.4815 5.5616 15.5665 5.52604C15.6515 5.49047 15.7286 5.43836 15.7933 5.37274C15.858 5.30712 15.909 5.22929 15.9434 5.14379C15.9777 5.05828 15.9947 4.96679 15.9934 4.87465V0.790726C16.0073 0.690611 15.9991 0.58868 15.9696 0.492032C15.94 0.395383 15.8898 0.306339 15.8223 0.231099C15.7548 0.15586 15.6717 0.096234 15.5788 0.0563726C15.486 0.0165113 15.3855 -0.00262722 15.2845 0.000289721ZM1.39073 2.78855C0.630654 2.78855 0 3.4192 0 4.17928V14.6098C0 15.3699 0.630654 16.0005 1.39073 16.0005H11.8212C12.5813 16.0005 13.212 15.3699 13.212 14.6098V5.86337L11.8212 7.25411V14.6098H1.39073V4.17928H8.74641L10.1371 2.78855H1.39073Z" fill="#0019FF"/>
</svg>
