<svg xmlns="http://www.w3.org/2000/svg" xmlns:xlink="http://www.w3.org/1999/xlink" width="100" height="100" viewBox="0 0 100 100">
  <defs>
    <clipPath id="clip-twitterWhite">
      <rect width="100" height="100"/>
    </clipPath>
  </defs>
  <g id="twitterWhite" clip-path="url(#clip-twitterWhite)">
    <path id="brand-twitter-basic" d="M89.72,29.63c.06.89.06,1.78.06,2.67,0,27.09-20.62,58.31-58.31,58.31A57.88,57.88,0,0,1,0,81.41a42.508,42.508,0,0,0,5,.25,41,41,0,0,0,25.44-8.75A20.53,20.53,0,0,1,11.23,58.69,25.9,25.9,0,0,0,15.1,59a21.49,21.49,0,0,0,5.4-.7A20.49,20.49,0,0,1,4.06,38.2v-.26a20.6,20.6,0,0,0,9.26,2.61A20.55,20.55,0,0,1,7,13.13,58.25,58.25,0,0,0,49.24,34.58a22.91,22.91,0,0,1-.51-4.69,20.52,20.52,0,0,1,35.47-14,40.42,40.42,0,0,0,13-4.95,20.45,20.45,0,0,1-9,11.3A41.5,41.5,0,0,0,100,19,44,44,0,0,1,89.72,29.63Z" transform="translate(0 -0.018)" fill="#fff"/>
  </g>
</svg>
